<?xml version="1.0" encoding="utf-8"?>
<!-- Generator: Adobe Illustrator 18.1.1, SVG Export Plug-In . SVG Version: 6.00 Build 0)  -->
<svg version="1.1" id="Layer_1" xmlns="http://www.w3.org/2000/svg" xmlns:xlink="http://www.w3.org/1999/xlink" x="0px" y="0px"
	 viewBox="0 0 1920 1080" enable-background="new 0 0 1920 1080" xml:space="preserve">
<symbol  id="Logo:_GE" viewBox="-18 -18 36 36">
	<path fill="#FFFFFF" d="M-8-4.2c-1.7-2.1-1.3-4.3-0.5-4.6c0.8-0.3,2.7,0.3,3.7,2.2c1,1.9,1.3,3.2,1.5,5.6C-5.2-1.9-6.8-2.7-8-4.2z"
		/>
	<path fill="#FFFFFF" d="M0,18c-9.9,0-18-8-18-18c0-10.1,8.7-18,18-18c9.9,0,17.9,8,18,17.9C18.1,9.8,10,18,0,18z M-0.1-17.1
		c-8.6,0-17.1,7-17.1,17.1c0,9.5,7.8,17.2,17.3,17.2c9.4-0.1,17.1-7.8,17-17.3C17.1-9.6,9.4-17.1-0.1-17.1z"/>
	<path fill="#FFFFFF" d="M16.2-0.1c0,7.9-5.8,14.2-12.7,14.2c-1.8,0-2.7-0.7-3.1-1.1c-0.7-0.6-1.6-0.6-2,0.1
		c-0.7,1.4,0.4,2.6,3.2,2.6c1.4,0,3.4-0.4,3.9-0.6c-2.4,1-4.2,1-5.2,1.1c-7.9,0-14.4-5.9-14.4-13c0-2.4,1-2.6,1.3-3.2
		c0.5-1,0-1.7-0.6-1.9c-1.1-0.4-2.4,0.2-2.4,3.4c0,1.3,0.6,4.3,0.9,5.1c-1.1-2.4-1.4-4.2-1.4-6.5c0-6.2,4.9-14.2,12.9-14.3
		c2.1,0,2.6,1,3.4,1.5c0.5,0.3,1.5,0.1,1.8-0.6c0.5-1.3-0.6-2.5-3.6-2.5c-0.9,0-2.8,0.2-3.5,0.4c1.8-0.7,3.6-0.9,5-0.9
		c6.1,0,14.4,4.7,14.4,12.9c0,1.7-0.9,2.6-1.2,3c-0.4,0.5-0.6,1.5,0,2c1.3,0.9,2.8-0.5,2.8-3.4c0-1.7-0.6-3.7-0.6-3.9
		C16-3.4,16.2-1.3,16.2-0.1z M5.8-10.3c-3.6,0-5.7,3-5.8,6c0,3.6,2.7,5.7,4.1,6.6C3.8,2.5,3.6,2.9,3.5,3.2C2.7,2.6,1.1,1.5-1.9-0.3
		C-2-3.2-2.4-4.8-3.4-7.1c-0.9-2.1-3.8-3.8-5.8-2.8c-2,0.9-2.1,4.8,0.4,7c1.6,1.4,3.2,2.1,5.5,3.4c0,0.3,0.1,0.7,0.2,1.1
		c-2.4-1.9-3.9-0.8-4.5,1.2c-2,0-3.8,2.8-2.4,5.1c0.2,0.3,0.7,0.1,0.5-0.3C-10.1,5.4-8.6,4-7.7,4.2c0,1.6,0.3,2.9,1.4,4.6
		c1.1,1.6,2.8,2.3,3.7,2c1-0.5,1.2-2.6,0.1-4.5c-1.1-1.8-2-2.6-3.7-3.4c0.6-2.3,3.2-0.3,3.5,0.2c0.4,0.8,0.5,1.8,1,2.3
		c0.9,0.8,1.5,0,1.2-0.7C-0.8,3.4-1.5,3-1.8,2.3c-0.1-0.5,0-1,0-1.2c2.6,1.4,3.5,2,5.1,3.1C3,4.8,2.9,6.2,3.5,7.9
		c0.6,1.7,2.3,2.8,3.3,2.8c1.4,0,1.5-1.9,0.9-3.2C6.5,5.1,5.1,4.3,4.6,3.8c0.2-0.7,0.6-1,0.9-1c0.9-0.1,2,0.3,2.7-0.3
		C8.7,2,8.4,1.2,7.6,1.2C6.9,1.1,5.7,1.4,5.2,1.7C3.6,1,1.9-1.3,2-3.9c0.1-3.4,2.2-5,4.2-5c1.7,0,3.3,1,3.3,3.3
		c0,3.3-3.2,2.7-3.2,0.8c0-0.8,1.3-1.1,0.8-1.9C6.6-7.6,4.8-6.5,4.8-4.8c0,2,1.5,2.8,3.1,2.8c1.6-0.1,3-1.1,3-3.5
		C10.9-8.8,8.4-10.4,5.8-10.3z"/>
	<path fill="#FFFFFF" d="M-5.3-15.3c-0.1,0-0.1,0-0.2,0.1C-5.5-15.2-5.4-15.2-5.3-15.3z"/>
	<path fill="#FFFFFF" d="M-14.8,6.7c0,0.1,0.1,0.2,0.1,0.2C-14.7,6.9-14.8,6.8-14.8,6.7z"/>
	<path fill="#FFFFFF" d="M5.5,15.2C5.5,15.2,5.5,15.2,5.5,15.2C5.6,15.2,5.5,15.2,5.5,15.2z"/>
	<path fill="#FFFFFF" d="M-3.8,6.2c1,1.4,1.1,2.8,0.6,3.1c-0.5,0.4-1.4-0.5-2-1.5c-0.7-1.3-1.3-3.1-1-3.7C-5.7,4.4-4.7,4.8-3.8,6.2z
		"/>
	<path fill="#FFFFFF" d="M6.1,7c0.5,0.9,1,2.1,0.2,2.4C6,9.6,5.1,8.6,4.7,7.7C4.2,6.5,4.2,5.4,4.3,4.9C4.8,5.2,5.6,5.9,6.1,7z"/>
</symbol>
<g>
	<polygon opacity="0.74" fill="#E8E8EA" points="0,0 1919.9,0 1919.9,190 617.5,190 371.5,679.6 0,679.6 	"/>
	<rect x="0.1" y="0.2" display="none" opacity="0.74" fill="#191D23" width="1919.9" height="68"/>
	<rect x="0.1" y="67.8" display="none" opacity="0.74" fill="#515358" width="1919.9" height="40"/>
	<text transform="matrix(1 0 0 1 105.9663 40.25)" display="none" fill="#FFFFFF" font-family="'GEInspira'" font-size="18">SXSW EEG BBQ Experience</text>
	<text transform="matrix(1 0 0 1 316.5356 40.25)" display="none" fill="#A8ADAD" font-family="'GEInspira-Italic'" font-size="13">powered by GE Business</text>
	
		<use xlink:href="#Logo:_GE"  width="36" height="36" x="-18" y="-18" transform="matrix(1 0 0 -1 74.7803 34.2344)" display="none" overflow="visible"/>
	<g display="none">
		<g display="inline">
			<text transform="matrix(1 0 0 1 826.9658 41.9199)" fill="#C2C2C2" font-family="'FontAwesome'" font-size="18"></text>
		</g>
		<g display="inline">
			<text transform="matrix(1 0 0 1 873.9648 41.9199)" fill="#C2C2C2" font-family="'FontAwesome'" font-size="18"></text>
		</g>
		<g display="inline">
			<text transform="matrix(1 0 0 1 1206.2471 40.9199)" fill="#C2C2C2" font-family="'FontAwesome'" font-size="16"></text>
		</g>
	</g>
</g>
</svg>
